<mxfile host="app.diagrams.net" agent="Mozilla/5.0 (Windows NT 10.0; Win64; x64) AppleWebKit/537.36 (KHTML, like Gecko) Chrome/131.0.0.0 Safari/537.36 Edg/131.0.0.0" version="24.9.3">
  <diagram name="Page-1" id="bG8l3HCdxYYPTU4J25cE">
    <mxGraphModel dx="1282" dy="1710" grid="1" gridSize="10" guides="1" tooltips="1" connect="1" arrows="1" fold="1" page="1" pageScale="1" pageWidth="827" pageHeight="1169" math="0" shadow="0">
      <root>
        <mxCell id="0" />
        <mxCell id="1" parent="0" />
        <mxCell id="9ppKvF9D70RUMVK4zJBX-10" value="App Front" style="shape=umlLifeline;perimeter=lifelinePerimeter;whiteSpace=wrap;html=1;container=1;dropTarget=0;collapsible=0;recursiveResize=0;outlineConnect=0;portConstraint=eastwest;newEdgeStyle={&quot;curved&quot;:0,&quot;rounded&quot;:0};" parent="1" vertex="1">
          <mxGeometry x="130" y="40" width="100" height="600" as="geometry" />
        </mxCell>
        <mxCell id="9ppKvF9D70RUMVK4zJBX-13" value="" style="html=1;points=[[0,0,0,0,5],[0,1,0,0,-5],[1,0,0,0,5],[1,1,0,0,-5]];perimeter=orthogonalPerimeter;outlineConnect=0;targetShapes=umlLifeline;portConstraint=eastwest;newEdgeStyle={&quot;curved&quot;:0,&quot;rounded&quot;:0};" parent="9ppKvF9D70RUMVK4zJBX-10" vertex="1">
          <mxGeometry x="46" y="80" width="10" height="430" as="geometry" />
        </mxCell>
        <mxCell id="9ppKvF9D70RUMVK4zJBX-11" value="Ligne avion - Cargo, commercial, militaire" style="shape=umlLifeline;perimeter=lifelinePerimeter;whiteSpace=wrap;html=1;container=1;dropTarget=0;collapsible=0;recursiveResize=0;outlineConnect=0;portConstraint=eastwest;newEdgeStyle={&quot;curved&quot;:0,&quot;rounded&quot;:0};" parent="1" vertex="1">
          <mxGeometry x="520" y="40" width="120" height="600" as="geometry" />
        </mxCell>
        <mxCell id="9ppKvF9D70RUMVK4zJBX-17" value="" style="html=1;points=[[0,0,0,0,5],[0,1,0,0,-5],[1,0,0,0,5],[1,1,0,0,-5]];perimeter=orthogonalPerimeter;outlineConnect=0;targetShapes=umlLifeline;portConstraint=eastwest;newEdgeStyle={&quot;curved&quot;:0,&quot;rounded&quot;:0};" parent="9ppKvF9D70RUMVK4zJBX-11" vertex="1">
          <mxGeometry x="46" y="132" width="10" height="378" as="geometry" />
        </mxCell>
        <mxCell id="9ppKvF9D70RUMVK4zJBX-12" value="Options" style="shape=umlLifeline;perimeter=lifelinePerimeter;whiteSpace=wrap;html=1;container=1;dropTarget=0;collapsible=0;recursiveResize=0;outlineConnect=0;portConstraint=eastwest;newEdgeStyle={&quot;curved&quot;:0,&quot;rounded&quot;:0};" parent="1" vertex="1">
          <mxGeometry x="720" y="41" width="100" height="600" as="geometry" />
        </mxCell>
        <mxCell id="9ppKvF9D70RUMVK4zJBX-22" value="" style="html=1;points=[[0,0,0,0,5],[0,1,0,0,-5],[1,0,0,0,5],[1,1,0,0,-5]];perimeter=orthogonalPerimeter;outlineConnect=0;targetShapes=umlLifeline;portConstraint=eastwest;newEdgeStyle={&quot;curved&quot;:0,&quot;rounded&quot;:0};" parent="9ppKvF9D70RUMVK4zJBX-12" vertex="1">
          <mxGeometry x="46" y="207" width="10" height="233" as="geometry" />
        </mxCell>
        <mxCell id="9ppKvF9D70RUMVK4zJBX-21" value="Selectionner une modèle" style="html=1;verticalAlign=bottom;endArrow=block;curved=0;rounded=0;fontSize=12;startSize=8;endSize=8;" parent="1" edge="1">
          <mxGeometry width="80" relative="1" as="geometry">
            <mxPoint x="54.5" y="175" as="sourcePoint" />
            <mxPoint x="180" y="175" as="targetPoint" />
          </mxGeometry>
        </mxCell>
        <mxCell id="9ppKvF9D70RUMVK4zJBX-36" value="API" style="shape=umlLifeline;perimeter=lifelinePerimeter;whiteSpace=wrap;html=1;container=1;dropTarget=0;collapsible=0;recursiveResize=0;outlineConnect=0;portConstraint=eastwest;newEdgeStyle={&quot;curved&quot;:0,&quot;rounded&quot;:0};" parent="1" vertex="1">
          <mxGeometry x="980" y="40" width="100" height="600" as="geometry" />
        </mxCell>
        <mxCell id="9ppKvF9D70RUMVK4zJBX-40" value="" style="html=1;points=[[0,0,0,0,5],[0,1,0,0,-5],[1,0,0,0,5],[1,1,0,0,-5]];perimeter=orthogonalPerimeter;outlineConnect=0;targetShapes=umlLifeline;portConstraint=eastwest;newEdgeStyle={&quot;curved&quot;:0,&quot;rounded&quot;:0};" parent="9ppKvF9D70RUMVK4zJBX-36" vertex="1">
          <mxGeometry x="45" y="160" width="10" height="280" as="geometry" />
        </mxCell>
        <mxCell id="f0SORPLu1wxNBxf0j8MD-3" value="" style="shape=umlLifeline;perimeter=lifelinePerimeter;whiteSpace=wrap;html=1;container=1;dropTarget=0;collapsible=0;recursiveResize=0;outlineConnect=0;portConstraint=eastwest;newEdgeStyle={&quot;curved&quot;:0,&quot;rounded&quot;:0};participant=umlActor;" parent="1" vertex="1">
          <mxGeometry x="50" y="41" width="20" height="600" as="geometry" />
        </mxCell>
        <mxCell id="f0SORPLu1wxNBxf0j8MD-7" value="Avions (id)" style="shape=umlLifeline;perimeter=lifelinePerimeter;whiteSpace=wrap;html=1;container=1;dropTarget=0;collapsible=0;recursiveResize=0;outlineConnect=0;portConstraint=eastwest;newEdgeStyle={&quot;curved&quot;:0,&quot;rounded&quot;:0};" parent="1" vertex="1">
          <mxGeometry x="320" y="40" width="100" height="600" as="geometry" />
        </mxCell>
        <mxCell id="f0SORPLu1wxNBxf0j8MD-8" value="" style="html=1;points=[[0,0,0,0,5],[0,1,0,0,-5],[1,0,0,0,5],[1,1,0,0,-5]];perimeter=orthogonalPerimeter;outlineConnect=0;targetShapes=umlLifeline;portConstraint=eastwest;newEdgeStyle={&quot;curved&quot;:0,&quot;rounded&quot;:0};" parent="f0SORPLu1wxNBxf0j8MD-7" vertex="1">
          <mxGeometry x="45" y="132" width="10" height="78" as="geometry" />
        </mxCell>
        <mxCell id="f0SORPLu1wxNBxf0j8MD-9" value="Accès aux lignes spécifiques" style="html=1;verticalAlign=bottom;endArrow=block;curved=0;rounded=0;fontSize=12;startSize=8;endSize=8;" parent="1" edge="1">
          <mxGeometry x="0.0688" y="2" width="80" relative="1" as="geometry">
            <mxPoint x="380" y="203" as="sourcePoint" />
            <mxPoint x="567.91" y="203" as="targetPoint" />
            <mxPoint as="offset" />
          </mxGeometry>
        </mxCell>
        <mxCell id="9_ZU9nsxjjVMOfDPYhVh-3" value="OK" style="html=1;verticalAlign=bottom;endArrow=block;curved=0;rounded=0;fontSize=12;startSize=8;endSize=8;" parent="1" edge="1">
          <mxGeometry width="80" relative="1" as="geometry">
            <mxPoint x="1020" y="434" as="sourcePoint" />
            <mxPoint x="570" y="434" as="targetPoint" />
          </mxGeometry>
        </mxCell>
        <mxCell id="zopguFTVqJUVnxxEzmCS-1" value="Accès aux options spécifiques" style="html=1;verticalAlign=bottom;endArrow=block;curved=0;rounded=0;fontSize=12;startSize=8;endSize=8;" parent="1" edge="1" target="9ppKvF9D70RUMVK4zJBX-12">
          <mxGeometry width="80" relative="1" as="geometry">
            <mxPoint x="577.5" y="305" as="sourcePoint" />
            <mxPoint x="704" y="305" as="targetPoint" />
          </mxGeometry>
        </mxCell>
        <mxCell id="haEERoZPzBM3zG14rT2W-1" value="Diagramme de séquence - Sélectionner des options&amp;nbsp;" style="text;html=1;align=center;verticalAlign=middle;whiteSpace=wrap;rounded=0;" vertex="1" parent="1">
          <mxGeometry x="80" y="-10" width="300" height="30" as="geometry" />
        </mxCell>
        <mxCell id="haEERoZPzBM3zG14rT2W-2" value="Utilisateur" style="text;html=1;align=center;verticalAlign=middle;whiteSpace=wrap;rounded=0;" vertex="1" parent="1">
          <mxGeometry x="30" y="80" width="60" height="30" as="geometry" />
        </mxCell>
        <mxCell id="haEERoZPzBM3zG14rT2W-3" value="" style="endArrow=none;html=1;rounded=0;" edge="1" parent="1">
          <mxGeometry width="50" height="50" relative="1" as="geometry">
            <mxPoint x="920" y="640.7999267578125" as="sourcePoint" />
            <mxPoint x="920" y="-10" as="targetPoint" />
          </mxGeometry>
        </mxCell>
        <mxCell id="haEERoZPzBM3zG14rT2W-4" value="Modèle sélectionné" style="html=1;verticalAlign=bottom;endArrow=block;curved=0;rounded=0;fontSize=12;startSize=8;endSize=8;" edge="1" parent="1" target="f0SORPLu1wxNBxf0j8MD-7">
          <mxGeometry width="80" relative="1" as="geometry">
            <mxPoint x="187.5" y="176" as="sourcePoint" />
            <mxPoint x="313" y="176" as="targetPoint" />
          </mxGeometry>
        </mxCell>
        <mxCell id="haEERoZPzBM3zG14rT2W-5" value="Requète" style="html=1;verticalAlign=bottom;endArrow=block;curved=0;rounded=0;fontSize=12;startSize=8;endSize=8;" edge="1" parent="1" target="9ppKvF9D70RUMVK4zJBX-36">
          <mxGeometry width="80" relative="1" as="geometry">
            <mxPoint x="577" y="220" as="sourcePoint" />
            <mxPoint x="918" y="220" as="targetPoint" />
          </mxGeometry>
        </mxCell>
        <mxCell id="haEERoZPzBM3zG14rT2W-6" value="Réponse" style="html=1;verticalAlign=bottom;endArrow=block;curved=0;rounded=0;fontSize=12;startSize=8;endSize=8;" edge="1" parent="1">
          <mxGeometry width="80" relative="1" as="geometry">
            <mxPoint x="1030" y="364" as="sourcePoint" />
            <mxPoint x="780" y="364" as="targetPoint" />
          </mxGeometry>
        </mxCell>
        <mxCell id="haEERoZPzBM3zG14rT2W-7" value="Requète" style="html=1;verticalAlign=bottom;endArrow=block;curved=0;rounded=0;fontSize=12;startSize=8;endSize=8;" edge="1" parent="1">
          <mxGeometry width="80" relative="1" as="geometry">
            <mxPoint x="780" y="340" as="sourcePoint" />
            <mxPoint x="1038" y="339.5" as="targetPoint" />
          </mxGeometry>
        </mxCell>
        <mxCell id="haEERoZPzBM3zG14rT2W-8" value="Réponse" style="html=1;verticalAlign=bottom;endArrow=block;curved=0;rounded=0;fontSize=12;startSize=8;endSize=8;" edge="1" parent="1">
          <mxGeometry width="80" relative="1" as="geometry">
            <mxPoint x="1028" y="249" as="sourcePoint" />
            <mxPoint x="578" y="249" as="targetPoint" />
          </mxGeometry>
        </mxCell>
      </root>
    </mxGraphModel>
  </diagram>
</mxfile>
